<?xml version="1.0" encoding="UTF-8"?>
<svg id="Layer_1" xmlns="http://www.w3.org/2000/svg" version="1.1" viewBox="0 0 676.4 653.6">
  <!-- Generator: Adobe Illustrator 29.4.0, SVG Export Plug-In . SVG Version: 2.1.0 Build 152)  -->
  <path d="M176.3,146.8c-1-1.5-1.5-3.4-1.2-5.2.5-3.8,20.4-23,24.5-27.6,14.5-16.4,50.8-58.4,51.5-79.6.7-23.4-36.6-17.1-50.4-13.4-53.2,14.3-119.2,68.4-148,115-25.3,41-18.2,61.1,24.7,80.1s79.4,23,102.2,57.7l50.5-26.4c14.2-17.3,29-36.9,49-48,14.2-7.9,29.5-11.4,38.6,5.5,9.5-8.6,20.7-2.2,15.4,10.4-6.1,14.3-17,28.7-22.7,43.3-5.1,13.3-5.9,20.2,9.1,10.1,13.2-9,44-37.5,50.8-51.2,2.2-4.4,8-21.5,11.1-23,4.1-2,8.7,1.8,9.5,6,2.4,13.3-14.5,44-16.5,60s-1.2,9,2.2,8.2c14.7-14.1,27.3-30.2,39.9-46.1,4.8-6.1,16.7-24.9,22.2-27.8s6.6-2,8.4.5c4.7,6.2-4.4,17.7.5,21.2,3.3,2,7.5.2,11-.9,14.2-4.5,13.6-15.2,23.5-23.5,7-6,16-6.8,15.6,4.5-6.6,13-14.3,25.4-20.4,38.6-2.4,5.1-8.4,17.3-8.9,22.1-.5,4.7,1.9,4.9,6.1,4,14.1-2.9,54.2-45.5,65.2-57.8,1.2-1.3,8.2-9,8.3-9.7.2-1.1-2.7-6.1-1.8-10.8.9-4.6,15.2-16.2,19.6-18.4,14.5-7,22,2.6,14.1,16.1s-9.7,10.8-8.8,11.7c62.1,4.3-2,54.6,3,81.5,2.3,12.1,30.9-.5,37.6-3.3,14-5.8,31.9-17.5,45.3-21.7s1.9-.7,3-.4c3.3,6.9-6.7,13.1-11.6,16.8-17.5,13.2-74.3,46.7-89.3,17.7-11-21.2,12.5-46.4,21.2-63.9,7-14.2-3.5-9.4-14.2-12.1s-8.3-5.1-11-2.1c-16.3,18.6-33.3,38.8-52.5,54.5-11.4,9.4-33.1,26.1-47.4,13.5-11.8-10.4.2-31.8,4.9-43.4-8.6,1.9-22.8,5.4-27-5-1.5-.4-1.6.2-2.4,1-3.4,3.4-7.8,11.5-11.2,15.8-8.5,11.1-34.2,46-47,48-20.1,3.2-17.8-27.9-13.5-39.9-15.2,12.5-36.4,42.4-58.4,38.9s-10.9-15.9-10-24.9,1.2-3-1.1-2-12.7,14-16,17c-7.7,7.1-23.7,19.5-34.1,20.9-16.6,2.2-24.5-5.6-22.2-22.2.4-3.2,2.4-6.5,2.7-9.3s0-1.7-1.5-1.5l-33.4,19.1c1,9.4.4,17.7-1.5,27-10.5,52.2-78.6,112.4-128.7,126.3-25.2,7-66.6,10.7-52-29,8.9-24.1,48.8-55,69.7-70.3,29-21.3,60.1-39.9,91.4-57.7,1-5.9-19.3-18.8-24.4-21.6-33.3-18.6-99.8-29.1-117-65C-.2,148.5,67.7,80.3,101.6,53.1,134.8,26.4,202.3-12.9,245.4,4.2c60.4,24-21.2,110.6-46.8,132.9-3.9,3.4-17.4,14.7-22.3,9.7ZM302.8,210.3c-1.6-1.3-4.1-1.5-6.1-1.2-16.3,1.7-45.5,38.6-53.4,52.6-1.7,3-9.9,18.8-8.1,21.2,1.1.3,2.1.8,3.3.7,12.9-.4,45.8-34.3,55.2-44.7,2.4-2.6,11.3-12.5,12-15,1.1-3.6.1-11.3-2.8-13.8ZM169.1,297.1c-12,5.8-23.6,13.4-34.9,20.6-25.7,16.4-108.5,71.7-115.4,99.6-.7,3-1.3,5.9-.3,8.9,13.6,3.9,30.6-1.4,43.6-6.6,36.8-14.7,89.5-61.6,102.3-99.7,2.5-7.4,4.1-15,4.7-22.8Z"/>
  <path d="M553.9,341.3c28.8-.8,103,0,119,28.4,16.8,29.9-31.1,56.4-52.2,67.5-82.6,43.5-183,68.7-256.1,128.9-15.2,12.5-43.5,41.3-32.9,62.9,6.4,13.1,23.9,14.3,36,18v4.1c-18.5,8.7-48.3-6-51.3-26.8-5.5-37.9,42.4-73.4,70.2-91.3,62.4-40.1,133.5-63.3,200.2-94.8,17.2-8.1,69.1-32.7,73.1-51.9,4-19.1-35.5-25.5-48.4-27.1-54.7-7-122,1-176.7,9-88.1,13-180.9,36.7-263.6,69.4-8.6,3.4-35.5,17.3-42.6,17-6.8-.3-9.7-6.2-5-11.5,8-9,41-21.9,53.3-26.7,111.3-43.3,257.6-71.5,377-75Z"/>
  <path d="M517.8,126.2c4.9-1.3,11.9,4.3,12.2,9.4.4,6.3-11.7,16-17.2,17.7-15,4.5-16.9-9.3-6.7-16.7s4-1.3,5.5-2.5c2.1-1.7,3-7,6.2-7.9Z"/>
</svg>