<svg width="131" height="116" viewBox="0 0 131 116" fill="none" xmlns="http://www.w3.org/2000/svg">
<g id="Layer_6" clip-path="url(#clip0_1325_1715)">
<path id="Union" d="M21.9392 113.337C20.1748 112.893 18.1368 112.654 17.6854 110.564C17.234 108.474 18.2872 106.098 19.0327 104.213C21.1938 98.7633 23.1634 93.2521 25.1946 87.7547C29.7425 75.469 34.3246 63.1765 37.915 50.5699C39.7342 44.1778 41.2729 37.7106 42.6065 31.2024C43.2699 27.9586 43.8786 24.7011 44.4188 21.4299C44.8018 19.1285 45.4036 16.8476 45.5678 14.512C45.7251 12.3335 45.3489 9.56769 43.2425 8.36575C41.1361 7.16382 39.4196 9.0555 38.4963 10.7082C37.3405 12.7706 36.8413 15.1403 36.5472 17.4622C36.1779 20.3441 36.4446 23.2806 37.6483 25.9508C39.8573 30.8542 44.665 34.1936 49.2266 36.7067C53.7882 39.2199 58.2882 41.0911 61.6256 45.0588C63.1097 46.8275 64.1765 48.9309 64.5732 51.2119C64.9699 53.4928 64.5458 56.0264 63.6705 58.1981C62.077 62.159 58.6233 64.9726 54.6704 66.3999C49.9789 68.0867 44.5761 68.394 39.7205 67.3013C34.8648 66.2087 30.5905 63.4838 28.0396 59.0449C25.6459 54.8928 24.3602 50.0168 23.8063 45.2842C23.5942 43.5017 23.7515 41.4052 25.3313 40.2511C26.9111 39.0969 29.1475 39.4657 30.9324 40.0121C35.8565 41.5281 39.6589 45.3729 43.5708 48.5348C47.8246 51.9631 52.6529 55.2274 57.8984 56.9142C62.542 58.4098 68.7518 58.4371 71.8157 53.9845C73.0467 52.1953 73.5664 49.9621 73.6348 47.8178C73.71 45.3115 72.862 43.092 71.4874 41.0228C70.7898 39.9711 69.9896 38.9945 69.3741 37.895C68.6903 36.6794 68.1568 35.4843 67.1652 34.4804C66.4266 33.7292 64.9767 34.2824 65.0177 35.3682C65.134 38.3252 64.115 43.1261 67.2677 44.9222C69.1621 46.0012 71.6994 45.2432 73.2655 43.932C75.0026 42.4705 75.8643 40.0803 76.4114 37.9428C77.1979 34.8697 78.5862 31.6805 78.1143 28.464C77.8955 26.9547 75.6455 27.3918 75.5702 28.7849C75.4676 30.7107 75.919 32.6366 76.4866 34.4599C76.9654 35.9897 77.5877 37.7994 79.0444 38.6735C81.6022 40.2101 83.9821 37.4101 85.2542 35.5185C87.2853 32.4932 88.3727 28.8464 89.1182 25.3157C89.8636 21.785 90.1235 17.8924 90.1372 14.1569C90.1372 12.0125 90.0004 9.86817 90.0141 7.72381C90.0278 5.57946 90.0825 3.28486 90.1714 1.07222L87.9829 1.05856C87.9282 3.97461 87.2922 6.85651 87.1007 9.76573C86.9092 12.675 86.9502 15.7481 86.8613 18.7392C86.7724 21.6689 86.6835 24.5782 86.7587 27.5079C86.834 30.4376 87.0597 33.1146 86.9502 35.9077C86.8476 38.4618 86.6698 40.9818 88.3591 43.0988C89.0908 44.0139 90.6843 43.0237 90.3287 41.9652C89.8294 40.4628 88.9951 39.2062 88.0376 37.9565C87.0049 36.5975 86.0543 35.1975 85.1516 33.7497C83.9069 31.7488 82.7443 29.7 81.4928 27.7059C80.5285 26.1762 79.4548 24.6123 78.1143 23.3899C77.786 23.0894 77.4373 22.8094 77.068 22.5704C76.9243 22.4748 76.7739 22.3997 76.6166 22.3245C76.2404 22.1606 76.2541 22.1811 76.6645 22.3928C76.514 22.2494 76.343 22.147 76.1379 22.0924C75.3103 21.8124 74.4486 22.1128 73.8263 22.6592C73.286 23.1236 73.4091 24.2367 74.0862 24.5235C77.2526 25.8689 80.9593 24.9128 84.1531 24.1274C86.0133 23.6699 87.9009 23.1509 89.5832 22.2016C90.4108 21.7372 91.2383 21.1568 91.8811 20.4465C92.4077 19.8592 92.7907 19.1285 93.5293 18.7939L91.7443 17.0183C90.7527 18.9987 89.0908 21.1226 89.3028 23.4582C89.5627 26.3606 92.9412 27.1801 95.3827 26.9206C100.443 26.3811 102.564 21.2114 103.87 16.9705C104.253 15.7344 104.588 14.4778 104.943 13.2349C105.114 12.6408 105.285 12.0467 105.477 11.4594C105.559 11.1999 105.648 10.9403 105.737 10.6877C105.792 10.5374 105.997 10.0048 105.956 10.114H103.617C104.41 11.5481 104.198 13.5013 103.986 15.072C103.719 17.0183 103.227 18.9236 102.796 20.8358C102.276 23.1577 101.975 25.5342 101.579 27.8766C101.1 30.7244 100.621 33.5653 100.19 36.4199C99.3356 42.0813 98.7816 47.77 98.3576 53.4791C97.9404 59.0722 97.6737 64.679 97.7489 70.2925C97.79 73.352 98.2277 76.3227 98.8021 79.3207C99.3766 82.3187 99.9853 85.3849 99.8758 88.4922L102.406 87.823C101.066 85.1323 100.485 82.1479 99.3698 79.3685C98.255 76.589 96.8599 73.673 95.3211 70.9618C92.3325 65.6828 88.7284 60.52 84.4882 56.1562C81.1098 52.6801 76.9585 50.1192 72.3354 48.6714C67.7123 47.2236 63.1917 47.0051 58.596 47.408C48.9394 48.2548 39.7342 51.7104 30.823 55.3162C26.364 57.1191 22.0897 59.2156 17.8701 61.5239C14.9361 63.1287 12.0501 64.8155 9.2735 66.6731C6.82515 68.3121 4.33578 70.0808 2.34564 72.273C1.01205 73.7412 -0.465162 75.831 0.177699 77.9343C1.27877 81.5265 6.07971 81.5675 9.08201 81.1577C11.3252 80.8572 13.5205 80.2494 15.6884 79.6006C17.8564 78.9519 19.997 78.3646 22.1581 77.7636C28.3883 76.029 34.516 73.9256 40.5343 71.5423C52.4478 66.8301 63.9372 61.1346 74.9205 54.5513C85.815 48.0226 96.217 40.7086 106.804 33.6951C109.348 32.0083 111.899 30.342 114.47 28.703C116.146 27.6376 118.608 26.3469 119.237 24.2982C120.051 21.6553 117.035 19.989 115.045 19.108C113.67 18.4934 112.193 18.111 110.729 18.6505C109.724 19.0192 108.951 19.7226 108.274 20.5353C107.084 21.9558 105.593 23.9977 105.703 25.9577C105.757 26.9547 106.79 27.6445 107.706 27.1186C109.238 26.2513 110.134 24.1752 110.955 22.707C112.063 20.7265 113.096 18.6573 114.477 16.8544C114.388 16.9637 114.689 16.5949 114.764 16.5061C114.922 16.3217 115.086 16.1442 115.257 15.9734C115.387 15.8437 115.523 15.7208 115.667 15.6047C115.387 15.83 115.852 15.509 115.954 15.4476C116.221 15.2837 115.681 15.6047 115.941 15.4476C115.995 15.4134 116.118 15.393 116.18 15.3861C116.07 15.3861 115.961 15.3451 116.07 15.4066C116.221 15.4886 116.317 15.27 116.043 15.393C116.016 15.4066 116.549 15.4476 116.029 15.3725C116.05 15.3725 116.18 15.4476 116.18 15.4544C116.221 15.6456 116.029 15.2973 116.2 15.4749C116.289 15.5637 116.371 15.6525 116.453 15.7412C116.597 15.912 116.276 15.4612 116.481 15.7959C116.556 15.912 116.624 16.0212 116.693 16.1442C116.816 16.3695 116.939 16.6017 117.035 16.8407C117.199 17.2437 117.404 18.029 117.589 18.5753C118.033 19.8729 118.683 21.2455 120.092 21.7031C122.116 22.3587 123.983 20.9519 125.419 19.709C126.213 19.0192 126.979 18.4729 127.888 17.9539C128.928 17.3529 129.906 16.6495 130.685 15.7208C131.78 14.4164 129.892 12.5247 128.784 13.8496C127.512 15.3656 125.611 16.0417 124.127 17.3051C123.45 17.8856 122.793 18.5958 121.966 18.9646C121.747 19.067 121.46 19.1695 121.213 19.19C121.042 19.2036 120.844 19.149 120.892 19.1763C120.591 19.0124 120.372 18.4524 120.229 18.0632C120.017 17.4758 119.859 16.868 119.654 16.2739C119.285 15.2495 118.792 14.1569 117.931 13.4398C114.169 10.3325 110.661 17.7285 109.32 20.1392C108.725 21.2114 108.144 22.2972 107.494 23.3353C107.364 23.5401 107.235 23.745 107.098 23.9499C107.036 24.0387 106.968 24.1343 106.906 24.223C106.742 24.4552 107.057 24.0455 106.872 24.2709C106.756 24.4074 106.64 24.5372 106.523 24.6669C106.229 25.0016 106.708 24.5987 106.373 24.7899L108.377 25.9508C108.342 25.343 108.766 24.5099 109.129 23.8611C109.58 23.0553 110.121 22.2836 110.777 21.6211C111.55 20.8426 112.528 20.7607 113.684 21.2114C114.668 21.5938 116.235 22.1606 116.864 23.0621C117.712 24.264 114.614 25.9372 113.855 26.4152C111.461 27.9244 109.067 29.4269 106.687 30.9634C96.641 37.4511 86.7314 44.1437 76.5345 50.406C66.2419 56.7298 55.5526 62.3297 44.4325 67.0487C34.3246 71.3374 23.8815 74.5198 13.329 77.4973C11.3115 78.0641 9.2393 78.5968 7.13974 78.6924C5.66937 78.7607 4.08958 78.6582 2.96799 77.6339C2.6534 77.347 2.98851 77.7704 2.79702 77.4153C2.75598 77.3402 2.71495 77.2651 2.67391 77.19C2.68759 77.2104 2.7423 77.4631 2.68075 77.1763C2.66708 77.0944 2.64656 77.0124 2.62604 76.9373C2.66024 77.0944 2.63288 77.1831 2.63972 76.9851C2.63972 76.9031 2.63972 76.8144 2.63972 76.7324C2.62604 76.4524 2.63972 76.6641 2.63972 76.6914C2.68075 76.507 2.72863 76.3363 2.78334 76.1519C2.8654 75.8788 2.70127 76.309 2.79702 76.1041C2.84489 75.9949 2.8996 75.8856 2.95431 75.7832C3.05006 75.5988 3.15264 75.4212 3.2689 75.2505C3.33729 75.1412 3.73395 74.5949 3.57665 74.7998C5.14961 72.7783 7.23549 71.194 9.23246 69.7735C11.8039 67.9501 14.4985 66.3111 17.234 64.7472C20.9613 62.6234 24.7774 60.52 28.7166 58.8127C36.6361 55.3776 44.8976 52.1748 53.3984 50.5153C61.9539 48.8421 71.0907 49.1221 78.4905 54.1962C82.8127 57.1601 86.1227 61.5444 89.0498 65.8194C92.2983 70.5589 95.239 75.7285 97.1813 81.144C98.1456 83.8211 98.7885 86.5937 100.067 89.1478C100.697 90.4044 102.557 89.7488 102.598 88.4785C102.789 82.9401 100.792 77.6543 100.519 72.1569C100.245 66.6594 100.573 60.7454 100.963 55.0908C101.353 49.4363 101.852 43.611 102.693 37.9155C103.124 35.0063 103.61 32.1039 104.095 29.2015C104.513 26.7293 104.827 24.2299 105.361 21.785C105.846 19.5451 106.414 17.3324 106.701 15.0515C106.968 12.9481 107.036 10.6467 105.969 8.74136C105.511 7.92186 104.034 7.78528 103.63 8.74136C102.099 12.3676 101.613 16.3627 99.91 19.9275C99.1236 21.5733 98.1798 23.0006 96.6547 23.7996C96.0666 24.107 95.198 24.264 94.3979 24.2367C93.8849 24.2162 93.3652 24.1479 92.8728 23.984C92.6744 23.9157 92.4829 23.8474 92.3051 23.7245C92.182 23.6426 92.0658 23.4787 92.0658 23.4718C92.0726 23.4855 91.9974 23.267 91.9905 23.2192C91.9769 23.0894 91.9905 22.7616 92.0042 22.7343C92.0726 22.2358 92.2709 21.7304 92.4761 21.2729C92.9412 20.2485 93.5361 19.2856 94.0285 18.268C94.6099 17.0661 93.4267 15.9461 92.2436 16.4924C90.8279 17.148 90.1919 18.7188 88.9199 19.5861C87.4632 20.5763 85.7808 21.0953 84.0916 21.5392C82.6485 21.9216 81.1987 22.2904 79.7283 22.5294C78.34 22.7548 76.6234 22.9733 75.283 22.4202L75.5429 24.2845C75.4471 24.3665 75.5292 24.3255 75.4403 24.3187C75.8643 24.3665 75.7822 24.3391 76.1173 24.5235C76.7602 24.8718 77.3073 25.3703 77.8202 25.8757C78.8461 26.8728 79.783 27.9859 80.6242 29.1469C81.9578 30.9839 82.8947 33.1556 84.0437 35.1155C84.796 36.3926 85.5756 37.6423 86.3621 38.8921C87.087 40.0394 87.7572 41.1798 88.065 42.5115L90.2329 41.6237C89.1387 39.9711 89.5217 37.6355 89.5764 35.7643C89.6585 33.06 89.4191 30.342 89.3302 27.6376C89.2413 24.9333 89.2755 22.0241 89.3507 19.2036C89.4259 16.3832 89.3712 13.4398 89.5012 10.5647C89.6448 7.38236 90.4107 4.2068 90.1851 1.02441C90.0893 -0.368733 87.9214 -0.402878 87.9966 1.01076C88.1676 4.40485 88.4685 7.77845 88.4822 11.1794C88.489 14.5871 88.4001 18.0153 87.9214 21.3958C87.4426 24.7762 86.5536 27.9723 85.0011 30.9839C84.3651 32.22 83.6402 33.4492 82.8058 34.5624C82.3066 35.2316 81.4996 36.1946 80.8225 36.4063C80.5421 36.495 80.5285 36.495 80.2617 36.2424C79.742 35.7438 79.4958 34.938 79.2633 34.2756C78.6409 32.5068 78.0938 30.6493 78.1759 28.7576L75.6318 29.0786C76.0148 31.4756 74.8385 33.9546 74.3734 36.2697C74.0246 38.0179 73.6553 39.8345 72.5132 41.2686C71.9935 41.9174 71.3301 42.4432 70.5231 42.6823C69.8939 42.8666 69.1279 42.894 68.6971 42.6959C68.3756 42.5457 68.1226 42.1632 67.9995 41.8491C67.767 41.2686 67.6644 40.6198 67.6165 40.0189C67.4866 38.4687 67.6371 36.9116 67.555 35.3546L65.4076 36.2424C66.3582 37.178 67.0489 38.3116 67.8627 39.3633C68.6766 40.415 69.6067 41.2823 70.4273 42.2862C72.1234 44.3486 72.5132 46.8275 72.0687 49.4226C71.6994 51.5875 70.6667 53.5747 68.7108 54.7084C66.3787 56.0606 63.3285 56.0469 60.7708 55.4733C57.9668 54.8518 55.3748 53.5611 52.9333 52.0792C50.6628 50.6997 48.447 49.1699 46.3953 47.4831C42.3671 44.1778 38.6399 40.2647 33.7774 38.1614C31.5069 37.178 28.9833 36.4404 26.494 36.8911C24.4696 37.2531 22.6573 38.5711 21.7888 40.4491C20.7903 42.614 21.0228 44.8607 21.3716 47.1417C21.7409 49.5592 22.2948 51.9631 23.0608 54.285C24.6611 59.1337 27.1505 63.7229 31.4385 66.6731C35.7265 69.6233 41.355 70.7637 46.6005 70.5725C51.3809 70.4018 56.3801 69.2955 60.3331 66.4887C64.286 63.6819 66.6933 59.6254 67.3225 54.9064C68.0064 49.7777 65.7221 45.0178 62.0633 41.5145C58.4045 38.0111 53.4462 36.0511 49.0009 33.4219C44.5556 30.7927 39.953 27.0435 39.2281 21.6485C38.8793 19.0397 39.2896 16.1783 40.1377 13.6993C40.418 12.8662 40.801 11.9989 41.3413 11.3023C41.4302 11.1862 41.5328 11.0769 41.6354 10.9677C41.8064 10.7969 41.8816 10.8106 41.9568 10.7082C41.9568 10.7082 41.7653 10.7696 41.9431 10.7082C42.1004 10.6535 41.9226 10.7218 41.8816 10.6877C41.9089 10.715 41.9089 10.6672 41.991 10.7423C43.5708 12.0672 42.8869 15.0515 42.5723 16.7724C42.1004 19.388 41.6217 22.0036 41.1498 24.6191C39.9667 31.1273 38.5579 37.6014 36.9097 44.0071C33.627 56.8049 29.1611 69.2681 24.5927 81.6562C22.3496 87.7478 20.1406 93.8531 17.8906 99.9379C17.0972 102.082 16.0714 104.138 15.4559 106.35C14.8404 108.563 14.56 110.967 15.8252 112.954C17.0904 114.942 19.1284 115.399 21.2758 115.932C22.9719 116.355 23.6763 113.74 21.9803 113.316L21.9392 113.337Z" fill="black"/>
</g>
<defs>
<clipPath id="clip0_1325_1715">
<rect width="131" height="116" fill="white"/>
</clipPath>
</defs>
</svg>
